<svg xmlns="http://www.w3.org/2000/svg" width="1200" height="675" viewBox="0 0 1200 675" role="img" aria-label="真实数据流水线" font-family="Noto Sans SC, Source Han Sans SC, PingFang SC, system-ui, sans-serif">
  <defs>
    <filter id="soft-shadow" x="-8%" y="-12%" width="116%" height="128%">
      <feDropShadow dx="0" dy="5" stdDeviation="7" flood-color="#111827" flood-opacity="0.08"/>
    </filter>
    <pattern id="dot-grid" width="28" height="28" patternUnits="userSpaceOnUse">
      <circle cx="1.5" cy="1.5" r="1.2" fill="#e8e4da" opacity="0.85"/>
    </pattern>
    <marker id="arrow" markerWidth="12" markerHeight="12" refX="10" refY="6" orient="auto" markerUnits="strokeWidth">
      <path d="M2,2 L10,6 L2,10" fill="none" stroke="#1b365d" stroke-width="2" stroke-linecap="round" stroke-linejoin="round" />
    </marker>
  </defs>
  <rect width="1200" height="675" fill="#f8f6f1"/>
  <rect x="1" y="1" width="1198" height="673" rx="18" fill="#faf9f5" stroke="#d9d6cc" stroke-width="1.6"/>
  <rect x="1" y="1" width="1198" height="673" rx="18" fill="url(#dot-grid)" opacity="0.34"/>
  <rect x="72" y="206" width="1056" height="390" rx="16" fill="#f8f6f1" stroke="#d9d6cc" stroke-width="1.1" opacity="0.82"/>
  <text x="84" y="82" fill="#1b365d" font-size="12" font-weight="800" letter-spacing="1.2">第4章</text>
  <text x="1116" y="82" text-anchor="end" fill="#5f6673" font-size="11" font-weight="700" letter-spacing="1">教学图示</text>
  <rect x="84" y="100" width="54" height="4" rx="2" fill="#1b365d"/>
  <text x="84.0" y="136.0" text-anchor="start" fill="#111827" font-size="31" font-weight="800"><tspan x="84.0" dy="0">真实数据流水线</tspan></text>
  <text x="84.0" y="178.0" text-anchor="start" fill="#5f6673" font-size="15" font-weight="500"><tspan x="84.0" dy="0">列表、字典、文件、异常组合成真实脚本的处理链。</tspan></text>
  <text x="94" y="252" fill="#5f6673" font-size="12" font-weight="700">从输入到结果的最短学习路径</text>
  <line x1="94" y1="274" x2="1106" y2="274" stroke="#d9d6cc" stroke-width="1.4"/>
  <line x1="290.0" y1="408.0" x2="292.0" y2="408.0" stroke="#1b365d" stroke-width="3" stroke-linecap="round" marker-end="url(#arrow)"/>
  <rect x="94.0" y="334.0" width="188.0" height="148.0" rx="8" fill="#f7f5ee" stroke="#1b365d" stroke-width="1.4" filter="url(#soft-shadow)"/>
  <rect x="94.0" y="334.0" width="188.0" height="5" rx="2.5" fill="#1b365d"/>
  <circle cx="120.0" cy="362.0" r="15" fill="#1b365d"/>
  <text x="120.0" y="367.0" text-anchor="middle" fill="#ffffff" font-size="12" font-weight="800"><tspan x="120.0" dy="0">1</tspan></text>
  <text x="146.0" y="367.0" text-anchor="start" fill="#111827" font-size="17" font-weight="760"><tspan x="146.0" dy="0">读取文件</tspan></text>
  <text x="116.0" y="454.0" text-anchor="start" fill="#5f6673" font-size="12" font-weight="560"><tspan x="116.0" dy="0">输入数据</tspan></text>
  <line x1="496.0" y1="408.0" x2="498.0" y2="408.0" stroke="#1b365d" stroke-width="3" stroke-linecap="round" marker-end="url(#arrow)"/>
  <rect x="300.0" y="334.0" width="188.0" height="148.0" rx="8" fill="#faf9f5" stroke="#d9d6cc" stroke-width="1.4" filter="url(#soft-shadow)"/>
  <circle cx="326.0" cy="362.0" r="15" fill="#1b365d"/>
  <text x="326.0" y="367.0" text-anchor="middle" fill="#ffffff" font-size="12" font-weight="800"><tspan x="326.0" dy="0">2</tspan></text>
  <text x="352.0" y="367.0" text-anchor="start" fill="#111827" font-size="17" font-weight="760"><tspan x="352.0" dy="0">列表/字典</tspan></text>
  <text x="322.0" y="454.0" text-anchor="start" fill="#5f6673" font-size="12" font-weight="560"><tspan x="322.0" dy="0">组织数据</tspan></text>
  <line x1="702.0" y1="408.0" x2="704.0" y2="408.0" stroke="#1b365d" stroke-width="3" stroke-linecap="round" marker-end="url(#arrow)"/>
  <rect x="506.0" y="334.0" width="188.0" height="148.0" rx="8" fill="#faf9f5" stroke="#d9d6cc" stroke-width="1.4" filter="url(#soft-shadow)"/>
  <circle cx="532.0" cy="362.0" r="15" fill="#1b365d"/>
  <text x="532.0" y="367.0" text-anchor="middle" fill="#ffffff" font-size="12" font-weight="800"><tspan x="532.0" dy="0">3</tspan></text>
  <text x="558.0" y="367.0" text-anchor="start" fill="#111827" font-size="17" font-weight="760"><tspan x="558.0" dy="0">处理逻辑</tspan></text>
  <text x="528.0" y="454.0" text-anchor="start" fill="#5f6673" font-size="12" font-weight="560"><tspan x="528.0" dy="0">转换结果</tspan></text>
  <line x1="908.0" y1="408.0" x2="910.0" y2="408.0" stroke="#1b365d" stroke-width="3" stroke-linecap="round" marker-end="url(#arrow)"/>
  <rect x="712.0" y="334.0" width="188.0" height="148.0" rx="8" fill="#faf9f5" stroke="#d9d6cc" stroke-width="1.4" filter="url(#soft-shadow)"/>
  <circle cx="738.0" cy="362.0" r="15" fill="#1b365d"/>
  <text x="738.0" y="367.0" text-anchor="middle" fill="#ffffff" font-size="12" font-weight="800"><tspan x="738.0" dy="0">4</tspan></text>
  <text x="764.0" y="367.0" text-anchor="start" fill="#111827" font-size="17" font-weight="760"><tspan x="764.0" dy="0">异常处理</tspan></text>
  <text x="734.0" y="454.0" text-anchor="start" fill="#5f6673" font-size="12" font-weight="560"><tspan x="734.0" dy="0">面对意外</tspan></text>
  <rect x="918.0" y="334.0" width="188.0" height="148.0" rx="8" fill="#f7f5ee" stroke="#1b365d" stroke-width="1.4" filter="url(#soft-shadow)"/>
  <rect x="918.0" y="334.0" width="188.0" height="5" rx="2.5" fill="#1b365d"/>
  <circle cx="944.0" cy="362.0" r="15" fill="#1b365d"/>
  <text x="944.0" y="367.0" text-anchor="middle" fill="#ffffff" font-size="12" font-weight="800"><tspan x="944.0" dy="0">5</tspan></text>
  <text x="970.0" y="367.0" text-anchor="start" fill="#111827" font-size="17" font-weight="760"><tspan x="970.0" dy="0">写回结果</tspan></text>
  <text x="940.0" y="454.0" text-anchor="start" fill="#5f6673" font-size="12" font-weight="560"><tspan x="940.0" dy="0">形成输出</tspan></text>
</svg>
